<?xml version="1.0" encoding="UTF-8"?>
<svg id="Layer_1" data-name="Layer 1" xmlns="http://www.w3.org/2000/svg" viewBox="0 0 48 48">
  <defs>
    <style>
      .cls-1 {
        fill: #ff6401;
      }
    </style>
  </defs>
  <path class="cls-1" d="m6.97,15.33c-.14.28-.27.57-.42.85-.59,1.1-.86,2.3-1.13,3.5-.15.66-.16,1.33-.08,1.98.09.75.43,1.43.97,1.99.5.52,1.07.93,1.73,1.2.37.15.77.21,1.16.29.37.07.75.18,1.12.15.98-.09,1.97-.2,2.93-.39,1.03-.2,2.03-.51,3.05-.78,1.57-.42,3.13-.85,4.69-1.28,1.5-.41,2.99-.82,4.49-1.22,1.7-.46,3.4-.91,5.1-1.38,1.1-.3,2.18-.63,3.28-.93,1.28-.35,2.57-.68,3.86-1.02.77-.21,1.52-.44,2.29-.65.79-.22,1.59-.41,2.38-.62,1.08-.3,2.15-.61,3.23-.91.75-.21,1.49-.41,2.24-.62.04-.01.08,0,.15.05-.1.06-.19.14-.29.19-.93.39-1.86.77-2.78,1.16-.92.39-1.85.79-2.76,1.2-.99.45-1.96.93-2.95,1.37-1.33.59-2.67,1.14-4.01,1.72-.28.12-.55.24-.82.36-1.5.68-2.99,1.38-4.5,2.05-.63.28-1.29.52-1.92.79-.45.2-.88.44-1.34.64-.76.33-1.54.64-2.31.97-.67.29-1.35.57-2.02.87-1.15.51-2.29,1.01-3.43,1.53-.92.42-1.83.86-2.75,1.29-.21.1-.42.17-.64.26-1.02.43-2.02.87-3.05,1.28-.66.26-1.33.47-2.01.67-.79.23-1.58.42-2.38.61-.21.05-.43.07-.65.09-.39.04-.77.08-1.16.1-1.17.05-2.31-.18-3.38-.63-1.04-.44-1.83-1.17-2.31-2.23-.7-1.53-.67-3.06-.17-4.64.37-1.18.87-2.3,1.5-3.35.52-.89,1.11-1.74,1.71-2.58.51-.72,1.04-1.43,1.6-2.11.53-.63,1.11-1.21,1.67-1.81.02-.02.06-.03.09-.05.01.01.03.03.04.04Z"/>
</svg>